<svg xmlns="http://www.w3.org/2000/svg" data-name="Layer 1" viewBox="0 0 128 128" x="0px" y="0px"><title>Miscellaneous 220_Expandline</title><path d="M98,41a2.0001,2.0001,0,0,0-2-2H40a2,2,0,0,0,0,4H96A2.0001,2.0001,0,0,0,98,41Z"/><path d="M40,53H66a2,2,0,0,0,0-4H40a2,2,0,0,0,0,4Z"/><path d="M31.55078,39.73633a2.00151,2.00151,0,0,0-2.814-.28711L22.94531,44.168l-1.37646-1.74121a1.99987,1.99987,0,1,0-3.1377,2.48047l2.63525,3.333a2.002,2.002,0,0,0,1.35114.748,2.02366,2.02366,0,0,0,1.4809-.4375l7.36475-6A2.00114,2.00114,0,0,0,31.55078,39.73633Z"/><path d="M40,73H66a2,2,0,1,0,0-4H40a2,2,0,0,0,0,4Z"/><path d="M40,89a2,2,0,0,0,0,4H66a2,2,0,1,0,0-4Z"/><path d="M98,14a2.0001,2.0001,0,0,0-2-2H20a2.0001,2.0001,0,0,0-2,2V26a2.0001,2.0001,0,0,0,2,2H96a2.0001,2.0001,0,0,0,2-2ZM44,24H22V16H44Zm26,0H48V16H70Zm24,0H74V16H94Z"/><path d="M122,116.21277l-.00293-7.69092a3.74263,3.74263,0,0,0-3.71552-3.76758l-12.07074.00458-.0014-3.65192c-.00079-2.08069-1.5365-3.76782-2.73285-3.76782l-1.91113.00073a39.60462,39.60462,0,0,1,3.267-13.10431A24.08436,24.08436,0,0,1,107.936,79.2052a15.35589,15.35589,0,1,0-23.68054.56061A20.486,20.486,0,0,1,87.55579,85.256a39.53418,39.53418,0,0,1,2.86737,12.088s-.71423.00031-1.91113.00073c-1.196.00049-2.73077,1.68884-2.73,3.7699l.0014,3.65192-12.07074.00458A3.74211,3.74211,0,0,0,70,108.5415l.00293,7.691a3.75392,3.75392,0,0,0,2.99762,3.69421l.00092,3.41608C73.002,125.46576,74.5235,128,76.91211,128l38.18164-.02148c2.19141-.002,3.90723-2.04883,3.90625-4.66113l-.00092-3.40729A3.75342,3.75342,0,0,0,122,116.21277ZM115,124H77c-.06836-.124.00055-4.00122.00055-4.00122l37.99854-.0144S115.06836,123.877,115,124Zm-40.99713-8.00012-.00275-7.22882,11.78479-.00446a4.03953,4.03953,0,0,0,3.99847-4.00153l-.00128-3.42078.64276-.00024a4,4,0,0,0,3.98156-4.36576c-.634-6.90558-2.51121-14.42507-7.10894-19.80984A11.61975,11.61975,0,0,1,95.86749,58a11.61871,11.61871,0,0,1,8.90973,18.75118c-4.49018,5.77972-6.541,13.03551-7.19537,20.22618a4,4,0,0,0,3.98511,4.36249l.64258-.00024.00128,3.42078a4.00016,4.00016,0,0,0,4.00153,3.99847l11.78485-.00446.00275,7.22888Z"/><path d="M99,63.999A2.0002,2.0002,0,0,0,97,62h-.00049A7.99956,7.99956,0,0,0,89,70.001,1.99989,1.99989,0,0,0,91,72h.001A2.00041,2.00041,0,0,0,93,69.999,4.0002,4.0002,0,0,1,97.00049,66,2.0002,2.0002,0,0,0,99,63.999Z"/><path d="M110,99.33411V83.17767a17.22194,17.22194,0,0,0-1.50635,2.669,33.42617,33.42617,0,0,0-2.45752,8.12207A7.931,7.931,0,0,1,110,99.33411Z"/><path d="M34,124V110c0-3.30859-3.05029-6-6.7998-6H10V6a2.3547,2.3547,0,0,1,2.54541-2h90.90918C104.86475,4,106,4.957,106,5.75V52.91443a19.49645,19.49645,0,0,1,3.57178,2.8385c.15131.15344.28259.321.42822.47858V5.75C110,2.63281,107.00244,0,103.45459,0H12.54541A6.29742,6.29742,0,0,0,6,6V106a2.08752,2.08752,0,0,0,.67871,1.501l22.72705,20a2.001,2.001,0,0,0,1.32129.499H70.2547a9.28765,9.28765,0,0,1-1.20312-4Zm-4-2.27051L13.52393,108H27.2002c1.51758,0,2.7998.916,2.7998,2Z"/><path d="M38,61a2.0001,2.0001,0,0,0,2,2H77.65912a19.60235,19.60235,0,0,1,1.94543-4H40A2.0001,2.0001,0,0,0,38,61Z"/><path d="M31.55078,59.73633a2.00151,2.00151,0,0,0-2.814-.28711L22.94531,64.168l-1.37646-1.74121a1.99987,1.99987,0,1,0-3.1377,2.48047l2.63525,3.333a2.002,2.002,0,0,0,1.35114.748,2.02366,2.02366,0,0,0,1.4809-.4375l7.36475-6A2.00114,2.00114,0,0,0,31.55078,59.73633Z"/><path d="M28.73682,79.44922,22.94531,84.168l-1.37646-1.74121a1.99987,1.99987,0,1,0-3.1377,2.48047l2.63525,3.333a2.002,2.002,0,0,0,1.35114.748,2.02366,2.02366,0,0,0,1.4809-.4375l7.36475-6a2.00014,2.00014,0,1,0-2.52637-3.10156Z"/><path d="M81.21289,82.3623A19.55215,19.55215,0,0,1,78.92145,79H40a2,2,0,0,0,0,4H81.71057C81.54675,82.78418,81.3855,82.56458,81.21289,82.3623Z"/></svg>