<svg xmlns="http://www.w3.org/2000/svg" version="1.1" viewBox="0 0 100 100">
 <path d="m42.348 1.9766c11.039 0 21.035 4.4766 28.273 11.711 1.3711 1.3711 2.6445 2.8438 3.8047 4.4023 6.5391 2.8984 12.133 7.5469 16.188 13.344 4.4258 6.3281 7.0234 14.023 7.0234 22.309 0 4.7344-0.84766 9.2773-2.3984 13.488-1.4688 3.9883-3.582 7.6758-6.2031 10.93l6.0312 17.117c0.19141 0.47656 0.19922 1.0273-0.019531 1.5352-0.43359 1.0117-1.6133 1.4805-2.625 1.0469l-18.805-8.1133c-2.1953 0.91406-4.5 1.6328-6.8945 2.1406-2.6172 0.55078-5.3164 0.84375-8.0664 0.84375-6.0664 0-11.816-1.3906-16.945-3.8711-4.543-2.1953-8.5938-5.2461-11.941-8.9414-0.80078-0.26562-1.5938-0.55469-2.3672-0.86719l-18.422 7.9492c-1.5195 0.65234-3.2852-0.050781-3.9375-1.5703-0.32812-0.76172-0.3125-1.5859-0.027344-2.2969l5.832-16.559c-2.5273-3.2305-4.5703-6.8633-6.0156-10.777-1.5938-4.3164-2.4609-8.9766-2.4609-13.828 0-11.039 4.4766-21.035 11.711-28.273 7.2344-7.2344 17.23-11.711 28.273-11.711zm0 54.414c2.5586 0 4.6289 2.0742 4.6289 4.6289 0 2.5586-2.0742 4.6289-4.6289 4.6289-2.5586 0-4.6289-2.0703-4.6289-4.6289 0-2.5586 2.0742-4.6289 4.6289-4.6289zm-9.0195-26.098c0 1.6562-1.3438 3-3 3s-3-1.3438-3-3c0-4.1484 1.6836-7.9023 4.3984-10.621 2.7188-2.7188 6.4727-4.3984 10.621-4.3984 4.1484 0 7.9023 1.6836 10.621 4.3984 2.7188 2.7188 4.3984 6.4727 4.3984 10.621 0 3.332-1.0977 6.418-2.9492 8.9219-1.8867 2.5508-4.5742 4.4844-7.6914 5.4336-0.42187 0.12891-0.77344 0.37891-1.0156 0.70703-0.23047 0.3125-0.36328 0.71875-0.36328 1.1797v4.2578c0 1.6562-1.3438 3-3 3s-3-1.3438-3-3v-4.2578c0-1.7578 0.56641-3.3984 1.5586-4.7422 0.98438-1.3281 2.3906-2.3438 4.0859-2.8633 1.8633-0.56641 3.4805-1.7344 4.6211-3.2773 1.1016-1.4883 1.7539-3.3438 1.7539-5.3594 0-2.4883-1.0117-4.7461-2.6406-6.3789-1.6328-1.6328-3.8867-2.6406-6.3789-2.6406-2.4883 0-4.7461 1.0117-6.3789 2.6406-1.6328 1.6328-2.6406 3.8867-2.6406 6.3789zm33.051-12.363c-6.1484-6.1484-14.648-9.9531-24.031-9.9531-9.3828 0-17.883 3.8047-24.031 9.9531-6.1484 6.1484-9.9531 14.648-9.9531 24.031 0 4.1445 0.73828 8.1094 2.0859 11.766 1.3906 3.7695 3.4258 7.2227 5.9766 10.223 0.72656 0.78906 1 1.9453 0.62109 3.0234l-4.1562 11.801 13.309-5.7422c0.73828-0.3125 1.5977-0.33594 2.3906 0.011719 2.1484 0.94922 4.3945 1.6875 6.707 2.1758 2.25 0.47266 4.6094 0.72266 7.0508 0.72266 9.3828 0 17.879-3.8047 24.031-9.9531 6.1484-6.1484 9.9531-14.645 9.9531-24.031 0-9.3828-3.8047-17.879-9.9531-24.031z"/>
</svg>