<svg xmlns="http://www.w3.org/2000/svg" xmlns:xlink="http://www.w3.org/1999/xlink" version="1.1" x="0px" y="0px" viewBox="0 0 105 105" enable-background="new 0 0 105 105" xml:space="preserve"><g><path d="M42.569,38.399c-1.313-0.724-2.553-1.597-3.694-2.605c-3.146,3.243-5.147,7.601-5.35,12.417H40.5   C40.604,44.802,41.307,41.491,42.569,38.399z"/><path d="M47.207,30.771c-2.681,0.779-5.116,2.133-7.167,3.921c0.985,0.858,2.051,1.608,3.175,2.238   C44.261,34.733,45.602,32.666,47.207,30.771z"/><path d="M40.497,49.809h-6.972c0.2,4.792,2.183,9.13,5.304,12.366c1.132-1.007,2.361-1.882,3.664-2.608   C41.262,56.488,40.583,53.195,40.497,49.809z"/><path d="M39.986,63.281c2.023,1.775,4.42,3.128,7.061,3.922c-1.58-1.898-2.893-3.969-3.919-6.16   C42.017,61.674,40.966,62.426,39.986,63.281z"/><path d="M64.963,34.691c-2.042-1.779-4.465-3.129-7.131-3.91c1.595,1.893,2.927,3.952,3.966,6.142   C62.918,36.295,63.977,35.547,64.963,34.691z"/><path d="M62.907,49.809h-9.608v7.186c2.719,0.103,5.357,0.737,7.784,1.852C62.201,55.99,62.823,52.943,62.907,49.809z"/><path d="M49.74,67.802c0.646,0.094,1.3,0.155,1.961,0.183v-9.392c-2.496,0.103-4.919,0.691-7.146,1.72   C45.824,63.045,47.568,65.574,49.74,67.802z"/><path d="M55.146,30.202c-0.608-0.086-1.223-0.142-1.848-0.167v9.299c2.469-0.102,4.865-0.678,7.072-1.685   C59.086,34.928,57.327,32.413,55.146,30.202z"/><path d="M61.006,39.118c-2.405,1.093-5.016,1.713-7.707,1.813v7.279h9.604C62.803,45.054,62.155,41.987,61.006,39.118z"/><path d="M62.44,38.395c1.258,3.092,1.957,6.403,2.06,9.816h6.975c-0.2-4.816-2.202-9.174-5.35-12.417   C64.985,36.801,63.751,37.671,62.44,38.395z"/><path d="M57.995,67.191c2.624-0.794,5.006-2.145,7.019-3.91c-0.975-0.854-2.023-1.604-3.133-2.233   C60.865,63.234,59.562,65.298,57.995,67.191z"/><path d="M62.518,59.571c1.299,0.727,2.523,1.597,3.655,2.604c3.119-3.236,5.102-7.574,5.302-12.366h-6.97   C64.42,53.201,63.742,56.493,62.518,59.571z"/><path d="M96.414,78.627v-54.91c0-2.387-1.936-4.324-4.324-4.324H12.908c-2.387,0-4.322,1.938-4.322,4.324v54.91H2.5   c0,4.285,3.475,6.98,7.76,6.98h84.48c4.283,0,7.76-2.695,7.76-6.98H96.414z M13.99,24.545h77.02v48.93H13.99V24.545z    M58.412,81.281H46.588c-1.467,0-2.656-1.189-2.656-2.654h17.135C61.066,80.092,59.879,81.281,58.412,81.281z"/><path d="M53.299,58.593v9.392c0.676-0.027,1.344-0.091,2-0.188c2.16-2.223,3.894-4.75,5.157-7.48   C58.225,59.286,55.801,58.697,53.299,58.593z"/><path d="M42.098,48.211h9.604v-7.279c-2.688-0.101-5.295-0.719-7.698-1.809C42.848,41.99,42.199,45.056,42.098,48.211z"/><path d="M43.926,58.841c2.425-1.111,5.061-1.744,7.775-1.847v-7.186h-9.606C42.18,52.941,42.803,55.987,43.926,58.841z"/><path d="M44.641,37.654c2.204,1.004,4.596,1.578,7.061,1.68v-9.299c-0.61,0.025-1.214,0.081-1.808,0.162   C47.698,32.411,45.934,34.931,44.641,37.654z"/></g></svg>