<svg xmlns="http://www.w3.org/2000/svg" data-name="Layer 1" viewBox="0 0 100 100" x="0px" y="0px"><defs><style>.cls-1{fill-rule:evenodd;}</style></defs><title>a</title><path class="cls-1" d="M85.676,62.176a12.042,12.042,0,1,0,0,17.029,12.041,12.041,0,0,0,0-17.029Zm-8.515-5.588a14.1,14.1,0,1,1-14.1,14.1,14.1,14.1,0,0,1,14.1-14.1Zm11.156,2.946a15.777,15.777,0,1,1-22.312,0,15.779,15.779,0,0,1,22.312,0ZM73.26,48.683a.618.618,0,0,0,.614.613h6.574a.614.614,0,0,0,0-1.227H73.874a.619.619,0,0,0-.614.614Zm5.281,2.674h-2.76v1.548a18.163,18.163,0,0,1,2.76,0V51.357ZM65.484,57.205l-1.278,1.224-1.1-1.6a.32.32,0,0,1,.08-.44l.919-.629a.319.319,0,0,1,.44.08l.934,1.364Zm24.632,1.224-1.278-1.224.934-1.364a.319.319,0,0,1,.44-.08l.919.629a.32.32,0,0,1,.08.44l-1.095,1.6ZM83.832,69.677a1.027,1.027,0,0,1,0,2.053l-6.671-.013a1.027,1.027,0,0,1-1.027-1.027l0-9.3a1.031,1.031,0,1,1,2.061,0v8.277l5.641.011Zm-10.382-33v9.362a2.675,2.675,0,0,0,.27,5.311v1.831a17.736,17.736,0,0,0-6.6,2.764l-.868-1.267a2.366,2.366,0,0,0-1.522-.991c-1.153-.215-1.81.4-2.694,1a2.378,2.378,0,0,0-.62,3.3l1.421,2.075A17.834,17.834,0,0,0,64.89,83.637H10.7A3.116,3.116,0,0,1,8.24,82.125a7.212,7.212,0,0,1-1.18-4.106V36.68ZM20.86,13.98a1.514,1.514,0,0,0-2.582,1.068v7.49a1.514,1.514,0,0,0,3.027,0v-7.49a1.508,1.508,0,0,0-.445-1.068ZM18.845,41.941H12.076V48.71h6.769V41.941Zm-7.8-2.061a1.03,1.03,0,0,0-1.03,1.03v8.83a1.031,1.031,0,0,0,1.03,1.031h8.831a1.031,1.031,0,0,0,1.03-1.031V40.91a1.03,1.03,0,0,0-1.03-1.03Zm24.313,1.828H28.589v6.769h6.769V41.708Zm-7.8-2.061a1.03,1.03,0,0,0-1.03,1.03v8.83a1.031,1.031,0,0,0,1.03,1.031h8.83a1.031,1.031,0,0,0,1.031-1.031v-8.83a1.03,1.03,0,0,0-1.031-1.03Zm24.313,2.061H45.1v6.769h6.769V41.708Zm-7.8-2.061a1.03,1.03,0,0,0-1.03,1.03v8.83a1.031,1.031,0,0,0,1.03,1.031H52.9a1.032,1.032,0,0,0,1.031-1.031v-8.83a1.031,1.031,0,0,0-1.031-1.03ZM18.845,56.586H12.076v6.769h6.769V56.586Zm-7.8-2.061a1.031,1.031,0,0,0-1.03,1.031v8.83a1.03,1.03,0,0,0,1.03,1.03h8.831a1.03,1.03,0,0,0,1.03-1.03v-8.83a1.031,1.031,0,0,0-1.03-1.031Zm24.33,2.061H28.606v6.769h6.769V56.586Zm-7.8-2.061a1.031,1.031,0,0,0-1.03,1.031v8.83a1.03,1.03,0,0,0,1.03,1.03h8.83a1.03,1.03,0,0,0,1.031-1.03v-8.83a1.031,1.031,0,0,0-1.031-1.031Zm24.33,2.061H45.136v6.769h6.769V56.586Zm-7.8-2.061a1.031,1.031,0,0,0-1.03,1.031v8.83a1.03,1.03,0,0,0,1.03,1.03h8.83a1.031,1.031,0,0,0,1.031-1.03v-8.83a1.032,1.032,0,0,0-1.031-1.031ZM61.833,13.98a1.514,1.514,0,0,0-2.582,1.068v7.49a1.514,1.514,0,0,0,3.028,0v-7.49a1.508,1.508,0,0,0-.446-1.068Zm-13.657,0a1.515,1.515,0,0,0-2.583,1.068v7.49a1.514,1.514,0,0,0,3.028,0v-7.49a1.512,1.512,0,0,0-.445-1.068Zm-13.658,0a1.514,1.514,0,0,0-2.582,1.068v7.49a1.514,1.514,0,0,0,3.027,0v-7.49a1.512,1.512,0,0,0-.445-1.068Zm2.506,5.132h6.508v3.426a3.575,3.575,0,0,0,7.15,0V19.112H57.19v3.426a3.575,3.575,0,0,0,7.15,0V19.112h5.475c2.181,0,3.635,2.31,3.635,4.576V34.619H7.06V23.688c0-2.266,1.455-4.576,3.636-4.576h5.521v3.426a3.575,3.575,0,0,0,7.149,0V19.112h6.508v3.426a3.575,3.575,0,0,0,7.15,0V19.112Zm-3.575-7.638a3.582,3.582,0,0,1,3.575,3.574v2h6.508v-2a3.575,3.575,0,0,1,7.15,0v2H57.19v-2a3.575,3.575,0,0,1,7.15,0v2h5.475c3.348,0,5.7,3.243,5.7,6.637v22.32h4.936a2.675,2.675,0,0,1,.154,5.345v1.831a17.742,17.742,0,0,1,6.6,2.764l.867-1.267a2.378,2.378,0,0,1,3.3-.619c.885.606,1.7,1,1.91,2.152a2.364,2.364,0,0,1-.371,1.775l-1.421,2.075A17.839,17.839,0,0,1,67.516,85.7H10.7a5.107,5.107,0,0,1-4.138-2.389A9.29,9.29,0,0,1,5,78.019V23.688c0-3.394,2.349-6.637,5.7-6.637h5.521v-2a3.575,3.575,0,0,1,7.149,0v2h6.508v-2a3.582,3.582,0,0,1,3.575-3.574Zm-14.6,59.758H12.076V78h6.769V71.232Zm-7.8-2.061a1.03,1.03,0,0,0-1.03,1.03v8.83a1.03,1.03,0,0,0,1.03,1.031h8.831a1.03,1.03,0,0,0,1.03-1.031V70.2a1.03,1.03,0,0,0-1.03-1.03Zm24.33,2.061H28.606V78h6.769V71.232Zm-7.8-2.061a1.03,1.03,0,0,0-1.03,1.03v8.83a1.03,1.03,0,0,0,1.03,1.031h8.83a1.03,1.03,0,0,0,1.031-1.031V70.2a1.03,1.03,0,0,0-1.031-1.03Zm24.33,2.061H45.136V78h6.769V71.232Zm-7.8-2.061a1.03,1.03,0,0,0-1.03,1.03v8.83a1.03,1.03,0,0,0,1.03,1.031h8.83a1.031,1.031,0,0,0,1.031-1.031V70.2a1.031,1.031,0,0,0-1.031-1.03ZM68.384,41.708H61.615v6.769h6.769V41.708Zm-7.8-2.061a1.03,1.03,0,0,0-1.03,1.03v8.83a1.031,1.031,0,0,0,1.03,1.031h8.83a1.032,1.032,0,0,0,1.031-1.031v-8.83a1.031,1.031,0,0,0-1.031-1.03Z"/></svg>