<svg xmlns="http://www.w3.org/2000/svg" xmlns:xlink="http://www.w3.org/1999/xlink" version="1.1" x="0px" y="0px" viewBox="0 0 512 512" style="enable-background:new 0 0 512 512;" xml:space="preserve"><g><g><g><path d="M448.939,366.146h-56.807c-1.04,0-2.037-0.413-2.773-1.148l-19.679-19.683c-0.846-0.847-1.259-2.032-1.122-3.221     c0.136-1.188,0.808-2.249,1.823-2.882l8.355-5.2l-38.58-0.997l0.315,29.167c0.012,1.048-0.397,2.056-1.134,2.801     c-0.736,0.744-1.74,1.163-2.788,1.163H197.614c-2.166,0-3.921-1.756-3.921-3.921c0-2.166,1.756-3.922,3.921-3.922h134.974     l-0.317-29.271c-0.012-1.064,0.411-2.088,1.17-2.836c0.759-0.747,1.787-1.16,2.854-1.127l55.723,1.441     c1.731,0.045,3.229,1.221,3.684,2.893c0.454,1.67-0.242,3.442-1.713,4.357l-15.268,9.502l15.038,15.041h55.181     c2.034-0.001,4.004-0.417,5.853-1.234c1.979-0.878,4.297,0.019,5.173,1.998c0.877,1.981-0.019,4.297-1.998,5.174     C455.11,365.503,452.074,366.145,448.939,366.146z M148.595,366.146H87.848c-12.3,0-22.306-10.006-22.306-22.306V135.433     c0-12.299,10.006-22.306,22.306-22.306h80.951c2.166,0,3.921,1.756,3.921,3.921v24.9c0,2.166-1.756,3.921-3.921,3.921     c-2.166,0-3.922-1.756-3.922-3.921V120.97H87.848c-7.975,0-14.463,6.488-14.463,14.462V343.84     c0,7.975,6.488,14.463,14.463,14.463h60.747c2.166,0,3.922,1.756,3.922,3.922C152.517,364.39,150.761,366.146,148.595,366.146z      M467.393,320.005c-2.166,0-3.922-1.756-3.922-3.921V135.433c0-7.975-6.52-14.462-14.532-14.462h-77.036v48.684     c0,2.166-1.756,3.921-3.921,3.921c-2.166,0-3.922-1.756-3.922-3.921v-52.605c0-2.166,1.756-3.921,3.922-3.921h80.957     c12.338,0,22.375,10.006,22.375,22.306v180.651C471.313,318.249,469.558,320.005,467.393,320.005z M367.981,280.72H168.799     c-2.166,0-3.922-1.756-3.922-3.922v-85.83c0-2.166,1.756-3.922,3.922-3.922c2.166,0,3.921,1.756,3.921,3.922v81.908H364.06     v-54.203c0-2.166,1.756-3.921,3.922-3.921c2.165,0,3.921,1.756,3.921,3.921v58.125     C371.902,278.964,370.146,280.72,367.981,280.72z"/></g><g><path d="M126.052,366.146H87.848c-12.3,0-22.306-10.006-22.306-22.306V135.433c0-12.299,10.006-22.306,22.306-22.306h38.205     c2.166,0,3.921,1.756,3.921,3.921v67.646c0,2.166-1.756,3.921-3.921,3.921c-2.166,0-3.922-1.756-3.922-3.921V120.97H87.848     c-7.975,0-14.463,6.488-14.463,14.462V343.84c0,7.975,6.488,14.463,14.463,14.463h34.283V233.714     c0-2.166,1.756-3.922,3.922-3.922c2.166,0,3.921,1.756,3.921,3.922v128.51C129.974,364.39,128.218,366.146,126.052,366.146z"/></g><g><path d="M104.137,272.571H91.309c-2.166,0-3.922-1.756-3.922-3.922v-58.029c0-2.166,1.756-3.922,3.922-3.922h12.828     c2.166,0,3.922,1.756,3.922,3.922v58.029C108.059,270.815,106.303,272.571,104.137,272.571z M95.23,264.728h4.985v-50.186H95.23     V264.728z"/></g><g><path d="M438.487,272.571h-12.905c-2.166,0-3.922-1.756-3.922-3.922v-58.029c0-2.166,1.756-3.922,3.922-3.922h12.905     c2.165,0,3.921,1.756,3.921,3.922v58.029C442.408,270.815,440.652,272.571,438.487,272.571z M429.504,264.728h5.062v-50.186     h-5.062V264.728z"/></g><g><path d="M448.938,366.146h-38.21c-2.166,0-3.922-1.756-3.922-3.921v-128.56c0-2.166,1.756-3.921,3.922-3.921     s3.922,1.756,3.922,3.921v124.638h34.288c8.013,0,14.532-6.488,14.532-14.463V135.433c0-7.975-6.52-14.462-14.532-14.462H414.65     v63.675c0,2.166-1.756,3.921-3.922,3.921s-3.922-1.756-3.922-3.921v-67.597c0-2.166,1.756-3.921,3.922-3.921h38.21     c12.338,0,22.375,10.006,22.375,22.306V343.84C471.313,356.14,461.276,366.146,448.938,366.146z"/></g><g><path d="M367.981,266.156h-99.553c-2.165,0-3.921-1.756-3.921-3.922v-10.817c0-2.166,1.756-3.922,3.921-3.922     c2.166,0,3.922,1.756,3.922,3.922v6.896h91.709V107.059h-69.749c-12.109,0-21.96,9.883-21.96,22.03v73.309     c0,2.166-1.756,3.921-3.922,3.921c-2.165,0-3.921-1.756-3.921-3.921v-73.309c0-16.472,13.369-29.873,29.803-29.873h73.671     c2.165,0,3.921,1.756,3.921,3.921v159.097C371.902,264.4,370.146,266.156,367.981,266.156z"/></g><g><path d="M268.429,266.156h-99.63c-2.166,0-3.922-1.756-3.922-3.922V103.137c0-2.166,1.756-3.921,3.922-3.921h73.678     c16.473,0,29.874,13.401,29.874,29.873v73.395c0,2.166-1.756,3.921-3.922,3.921c-2.165,0-3.921-1.756-3.921-3.921v-73.395     c0-12.147-9.883-22.03-22.031-22.03H172.72v151.254h91.788v-6.811c0-2.166,1.756-3.921,3.921-3.921     c2.166,0,3.922,1.756,3.922,3.921v10.731C272.351,264.4,270.595,266.156,268.429,266.156z"/></g><g><path d="M217.679,131.64h-35.973c-2.166,0-3.921-1.756-3.921-3.922c0-2.166,1.756-3.921,3.921-3.921h35.973     c2.166,0,3.921,1.756,3.921,3.921C221.6,129.884,219.844,131.64,217.679,131.64z"/></g><g><path d="M217.679,145.698h-35.973c-2.166,0-3.921-1.756-3.921-3.921c0-2.166,1.756-3.922,3.921-3.922h35.973     c2.166,0,3.921,1.756,3.921,3.922C221.6,143.942,219.844,145.698,217.679,145.698z"/></g><g><path d="M245.002,159.754h-63.296c-2.166,0-3.921-1.756-3.921-3.921s1.756-3.921,3.921-3.921h63.296     c2.166,0,3.922,1.756,3.922,3.921S247.168,159.754,245.002,159.754z"/></g><g><path d="M245.002,173.81h-63.296c-2.166,0-3.921-1.756-3.921-3.921s1.756-3.921,3.921-3.921h63.296     c2.166,0,3.922,1.756,3.922,3.921S247.168,173.81,245.002,173.81z"/></g><g><path d="M245.002,187.869h-63.296c-2.166,0-3.921-1.756-3.921-3.922c0-2.166,1.756-3.921,3.921-3.921h63.296     c2.166,0,3.922,1.756,3.922,3.921C248.924,186.113,247.168,187.869,245.002,187.869z"/></g><g><path d="M245.002,201.924h-63.296c-2.166,0-3.921-1.756-3.921-3.921c0-2.166,1.756-3.922,3.921-3.922h63.296     c2.166,0,3.922,1.756,3.922,3.922C248.924,200.168,247.168,201.924,245.002,201.924z"/></g><g><path d="M245.002,215.983h-63.296c-2.166,0-3.921-1.756-3.921-3.921c0-2.166,1.756-3.922,3.921-3.922h63.296     c2.166,0,3.922,1.756,3.922,3.922C248.924,214.227,247.168,215.983,245.002,215.983z"/></g><g><path d="M245.002,230.039h-63.296c-2.166,0-3.921-1.756-3.921-3.921s1.756-3.921,3.921-3.921h63.296     c2.166,0,3.922,1.756,3.922,3.921S247.168,230.039,245.002,230.039z"/></g><g><path d="M245.002,244.099h-63.296c-2.166,0-3.921-1.756-3.921-3.922s1.756-3.921,3.921-3.921h63.296     c2.166,0,3.922,1.756,3.922,3.921S247.168,244.099,245.002,244.099z"/></g><g><path d="M354.14,131.64h-35.973c-2.166,0-3.922-1.756-3.922-3.922c0-2.166,1.756-3.921,3.922-3.921h35.973     c2.166,0,3.922,1.756,3.922,3.921C358.062,129.884,356.306,131.64,354.14,131.64z"/></g><g><path d="M354.14,145.698h-35.973c-2.166,0-3.922-1.756-3.922-3.921c0-2.166,1.756-3.922,3.922-3.922h35.973     c2.166,0,3.922,1.756,3.922,3.922C358.062,143.942,356.306,145.698,354.14,145.698z"/></g><g><path d="M354.14,159.754h-63.29c-2.165,0-3.921-1.756-3.921-3.921s1.756-3.921,3.921-3.921h63.29     c2.166,0,3.922,1.756,3.922,3.921S356.306,159.754,354.14,159.754z"/></g><g><path d="M354.14,173.81h-63.29c-2.165,0-3.921-1.756-3.921-3.921s1.756-3.921,3.921-3.921h63.29c2.166,0,3.922,1.756,3.922,3.921     S356.306,173.81,354.14,173.81z"/></g><g><path d="M354.14,187.869h-63.29c-2.165,0-3.921-1.756-3.921-3.922c0-2.166,1.756-3.921,3.921-3.921h63.29     c2.166,0,3.922,1.756,3.922,3.921C358.062,186.113,356.306,187.869,354.14,187.869z"/></g><g><path d="M354.14,201.924h-63.29c-2.165,0-3.921-1.756-3.921-3.921c0-2.166,1.756-3.922,3.921-3.922h63.29     c2.166,0,3.922,1.756,3.922,3.922C358.062,200.168,356.306,201.924,354.14,201.924z"/></g><g><path d="M354.14,215.983h-63.29c-2.165,0-3.921-1.756-3.921-3.921c0-2.166,1.756-3.922,3.921-3.922h63.29     c2.166,0,3.922,1.756,3.922,3.922C358.062,214.227,356.306,215.983,354.14,215.983z"/></g><g><path d="M354.14,230.039h-63.29c-2.165,0-3.921-1.756-3.921-3.921s1.756-3.921,3.921-3.921h63.29     c2.166,0,3.922,1.756,3.922,3.921S356.306,230.039,354.14,230.039z"/></g><g><path d="M354.14,244.099h-63.29c-2.165,0-3.921-1.756-3.921-3.922s1.756-3.921,3.921-3.921h63.29     c2.166,0,3.922,1.756,3.922,3.921S356.306,244.099,354.14,244.099z"/></g><g><path d="M367.981,280.72H238.589c-2.166,0-3.921-1.756-3.921-3.922s1.756-3.922,3.921-3.922h125.47v-6.72H172.72v6.72h16.85     c2.166,0,3.921,1.756,3.921,3.922s-1.756,3.922-3.921,3.922h-20.771c-2.166,0-3.922-1.756-3.922-3.922v-14.563     c0-2.165,1.756-3.921,3.922-3.921h199.183c2.165,0,3.921,1.756,3.921,3.921v14.563     C371.902,278.964,370.146,280.72,367.981,280.72z"/></g><g><path d="M272.606,396.061H95.345c-2.166,0-3.921-1.756-3.921-3.922s1.756-3.922,3.921-3.922h177.262     c2.166,0,3.922,1.756,3.922,3.922S274.772,396.061,272.606,396.061z"/></g><g><path d="M294.957,412.784h-40.516c-2.166,0-3.922-1.756-3.922-3.922c0-2.165,1.756-3.921,3.922-3.921h39.681l28.697-12.803     l-28.697-12.803H99.267v25.605h106.155c2.166,0,3.921,1.756,3.921,3.921c0,2.166-1.756,3.922-3.921,3.922H95.345     c-2.166,0-3.921-1.756-3.921-3.922v-33.448c0-2.165,1.756-3.921,3.921-3.921h199.612c0.551,0,1.096,0.115,1.598,0.34     l37.487,16.724c1.413,0.631,2.323,2.034,2.323,3.582s-0.91,2.95-2.323,3.582l-37.487,16.724     C296.053,412.668,295.508,412.784,294.957,412.784z"/></g><g><path d="M95.345,412.784H80.64c-2.166,0-3.922-1.756-3.922-3.922v-33.448c0-2.165,1.756-3.921,3.922-3.921h14.705     c2.166,0,3.922,1.756,3.922,3.921v33.448C99.267,411.028,97.511,412.784,95.345,412.784z M84.562,404.941h6.862v-25.605h-6.862     V404.941z"/></g><g><path d="M80.64,412.784H61.318c-11.376,0-20.632-9.262-20.632-20.646s9.256-20.646,20.632-20.646H80.64     c2.166,0,3.921,1.756,3.921,3.921v33.448C84.562,411.028,82.806,412.784,80.64,412.784z M61.318,379.336     c-7.052,0-12.789,5.743-12.789,12.803c0,7.059,5.737,12.803,12.789,12.803h15.4v-25.605H61.318z"/></g><g><path d="M294.957,412.784h-20.331c-2.166,0-3.922-1.756-3.922-3.922v-33.448c0-2.165,1.756-3.921,3.922-3.921h20.331     c0.551,0,1.096,0.115,1.598,0.34l37.487,16.724c1.413,0.631,2.323,2.034,2.323,3.582s-0.91,2.95-2.323,3.582l-37.487,16.724     C296.053,412.668,295.508,412.784,294.957,412.784z M278.547,404.941h15.575l28.697-12.803l-28.697-12.803h-15.575V404.941z"/></g><g><path d="M375.19,395.483c-1.04,0-2.037-0.413-2.772-1.148l-22.577-22.576l-9.698,15.142c-0.935,1.46-2.715,2.131-4.383,1.655     c-1.665-0.478-2.821-1.992-2.841-3.724l-0.648-55.797c-0.013-1.065,0.41-2.091,1.168-2.839c0.759-0.747,1.755-1.159,2.855-1.128     l55.723,1.441c1.731,0.045,3.229,1.221,3.684,2.893c0.454,1.67-0.242,3.442-1.713,4.357l-15.262,9.498l22.373,22.315     c1.533,1.529,1.537,4.012,0.008,5.545l-23.139,23.213c-0.735,0.737-1.732,1.151-2.774,1.152     C375.192,395.483,375.191,395.483,375.19,395.483z M349.168,361.618c1.034,0,2.033,0.409,2.772,1.148l23.245,23.245     l17.599-17.654l-23.1-23.039c-0.848-0.846-1.262-2.032-1.127-3.222c0.136-1.189,0.808-2.252,1.824-2.885l8.355-5.2l-38.577-0.996     l0.449,38.615l5.257-8.206c0.64-1.001,1.699-1.656,2.88-1.784C348.887,361.626,349.028,361.618,349.168,361.618z"/></g></g></g></svg>