<svg xmlns="http://www.w3.org/2000/svg" viewBox="0 0 100 100" version="1.1" x="0px" y="0px"><title>Download s21.4</title><desc>Created with Sketch.</desc><g stroke="none" stroke-width="1" fill="none" fill-rule="evenodd" transform="matrix(0, 1, -1, 0, 99.656456, -0.000002)"><g fill="#a84e1a"><path d="M47.0089466,76.845205 C47.0089466,78.5062324 45.6721897,79.6730092 44.0413236,79.4082303 C44.0413236,79.4082303 44.9985939,79.6019556 44.0181575,79.4035712 C30.3156701,76.6309698 20,64.5201618 20,50 C20,33.4314575 33.4314575,20 50,20 C66.5685425,20 80,33.4314575 80,50 C80,64.5040161 69.7072582,76.6040336 56.0275394,79.3942876 C55.032696,79.5972059 55.9559056,79.4086379 55.9559056,79.4086379 C54.3189452,79.6538727 52.9919266,78.5048973 52.9919266,76.8451269 L52.9919266,48.4862167 C52.9919266,47.3805022 53.6256059,47.1220556 54.4069511,47.90862 L59.8390694,53.3636635 C62.6600445,56.1917216 66.8900113,51.9486345 64.0700334,49.1205764 L52.0440897,36.8847054 C50.8854039,35.7017585 49.0132064,35.703755 47.8530305,36.8988363 L35.9298426,49.1205764 C33.1098647,51.9486345 37.3408287,56.1917216 40.1608066,53.3636635 L45.5936309,47.90862 C46.3752882,47.1219034 47.0089466,47.3850916 47.0089466,48.4862167 L47.0089466,76.845205 Z" transform="translate(50.000000, 49.746483) rotate(-180.000000) translate(-50.000000, -49.746483) "/></g></g></svg>