<svg xmlns="http://www.w3.org/2000/svg" xmlns:xlink="http://www.w3.org/1999/xlink" version="1.1" x="0px" y="0px" viewBox="0 0 510 510" style="enable-background:new 0 0 510 510;" xml:space="preserve"><path d="M199.2,295.6l-11.7,11.7c-5.3,5.3,6.2,16.8,11.5,11.5l11.7-11.7C216,301.8,204.5,290.3,199.2,295.6L199.2,295.6z   M181.7,301.5l5.8-5.8c1.8-1.8,1.7-4.4,0.5-6.7c-2.1-4.1-8.2-8.5-12-4.8l-16.7,16.7c-5.3,5.3,6.2,16.8,11.5,11.5L181.7,301.5z   M196.3,287.6c11.7-6.6,27.9,8.8,23.1,20.8l3.3,3.3l0,0c5.8,5.1,18.9-4.1,14.1-8.9l0.3-0.3c-0.7-0.2-1.2-0.5-1.7-1l-29-29  c-3.8-3.8,2-9.6,5.8-5.8l28.9,28.9c0.5,0.5,0.9,1.1,1,1.7l0.3-0.3c5.2,5.2,16.8-6,11.4-11.4l-29.8-30c-3.8-3.8,2-9.6,5.8-5.8  l29.8,29.9c5.5,5.3,17.3-5.9,7.9-15.2l-42.5-41.3c-3-2.1-5.8-3.3-8.4-3.8c-3.9-0.7-7.5,0.5-10.5,3.5c-22.5,22.5-49.7-2.2-38-13.9h0  l19.3-19.3l-20.9-4.4c-0.9-0.2-1.8-0.7-2.4-1.4L131,144.5l-58.1,59.7l43.9,26.1c0.6,0.3,1.1,0.8,1.5,1.4l11.8,18.1l8-8  c6.5-6.5,15.6-3.9,21.3,1.8h0c3.7,3.7,6.2,9,5.5,14.1c7.8,1.5,14.8,9.1,15.2,17C187.1,275,193.9,280.8,196.3,287.6L196.3,287.6z   M214.4,315l-9.6,9.6c-8.6,8.6-22,1.4-25.9-8.7l-2.3,2.3c-9.2,9.2-23.9,0.3-26.5-10.8c-11.5,2.4-24.5-11.9-19.4-22.8  c-10.5-3.4-18.3-17.3-9.5-26.1l2.8-2.8l-12.2-18.7l-47.7-28.3c-2.3-1.4-2.7-4.5-0.7-6.5l64.8-66.5c1.7-1.7,4.5-1.6,6.1,0.2  l35.1,41.9l25.4,5.4c11.7-6.8,29.6-5.4,43.3-5.7l29.5-41.3c1.4-2,4.3-2.3,6.1-0.7l69.9,64.6c2,1.8,1.7,5-0.7,6.5L295.5,237  l-20.7,23.4c10.9,12.8,0.6,28.5-11.2,29c-0.3,8.6-8.9,17.1-17.6,17.3c-1.6,11.2-18.9,20-28.7,11.2l0,0L214.4,315z M158.8,267  l-19.6,19.6c-5.3,5.3,6.2,16.8,11.5,11.5l19.6-19.6C175.6,273.1,164.1,261.7,158.8,267L158.8,267z M290.7,230.4l43.7-28l-62.6-57.9  l-28,39.2c-0.7,1-1.9,1.7-3.2,1.7l-26.4,0.6c-4.2,0.3-13.7,2.6-15.8,4.5l-24.3,24.3v0c-2.8,3,11.5,17.3,26.5,2.4  c12.1-12.1,26.7-4.4,36.9,5.7l31.8,31.6L290.7,230.4z M143.8,247.5l-16.7,16.7c-5.3,5.3,6.2,16.8,11.5,11.5l16.7-16.7  c2.9-2.9,0.8-7.1-1.8-9.7v0C151,246.8,146.7,244.6,143.8,247.5L143.8,247.5z M203.6,18.9c12.3,0,18.7,15.1,9.8,23.8  c-8.9,8.8-23.8,2.3-23.8-9.9C189.7,25.2,195.9,18.9,203.6,18.9L203.6,18.9z M207.7,28.8c-5.3-5.4-13.5,2.8-8.1,8.1  C204.9,42.2,213,34.1,207.7,28.8L207.7,28.8z M271.9,442.2c5.4,0,5.4,8.2,0,8.2H253c-5.4,0-5.4-8.2,0-8.2H271.9z M271.9,421.2  c5.4,0,5.4,8.2,0,8.2H154.8c-5.4,0-5.4-8.2,0-8.2H271.9z M235.6,442.2c5.4,0,5.4,8.2,0,8.2h-80.8c-5.4,0-5.4-8.2,0-8.2H235.6z   M154.8,395.1c-5.4,0-5.4-8.2,0-8.2h18.9c5.4,0,5.4,8.2,0,8.2H154.8z M154.8,374.2c-5.4,0-5.4-8.2,0-8.2h117.2c5.4,0,5.4,8.2,0,8.2  H154.8z M191.1,395.1c-5.4,0-5.4-8.2,0-8.2h80.8c5.4,0,5.4,8.2,0,8.2H191.1z M302.2,428.9l52.1-54.2l-31.6-18.1L302.2,428.9z   M330.3,411.5l-33.4,34.8c-3,3.3-8.2,0.3-7-3.8l25.5-90c-2.3-1.3-4.3-3.3-2.6-6.2l43-75V93.9c0-9.3-7.6-16.9-16.9-16.9h-54.1  c-2.2,6.3-8.2,10.7-15.1,10.7h-132c-6.9,0-12.9-4.4-15.1-10.7H68.5c-9.3,0-16.9,7.6-16.9,16.9v363.7c0,9.3,7.6,16.9,16.9,16.9h270.3  c9.3,0,16.9-7.6,16.9-16.9V385L330.3,411.5z M473.3,167c4.5-7.9,9.2-13.6,6.7-22.5c-4.3-15.8-25.4-18.1-33.3-4.3l-5,8.7L473.3,167z   M485.3,162.4l-5,8.7l1.3,0.8c2,1.1,2.6,3.6,1.5,5.6l-97.1,169.3v154.1c0,2.3-1.8,4.1-4.1,4.1H25.2c-2.2,0-4.1-1.8-4.1-4.1V50.7  c0-2.3,1.8-4.1,4.1-4.1h96.6c0.5-3.2,2.2-6.6,4.5-8.8v0c2.9-2.9,6.9-4.7,11.3-4.7h34.2c-2.8-7.3-6.1-13.4-0.7-21.2  c3-4.4,7.8-6.9,13.2-6.9H223c11.2,0,18.9,11.2,14.9,21.7l-2.5,6.5h34.2c7.9,0,14.6,5.8,15.8,13.5H382c2.3,0,4.1,1.8,4.1,4.1v167.4  l41.6-72.5c1.1-2,3.6-2.6,5.6-1.5l1.3,0.7c5.5-9.6,9-17.7,21-21C478.3,117.7,496.9,142.1,485.3,162.4L485.3,162.4z M377.9,361.1  l-9.7,17c-0.9,1.5-2.6,2.3-4.3,2v77.6c0,13.8-11.3,25.1-25.1,25.1H68.5c-13.8,0-25.1-11.3-25.1-25.1V93.9  c0-13.8,11.3-25.1,25.1-25.1h53.2v-14H29.3v442h348.6V361.1z M363.9,256.9l14-24.5V54.8h-92.3v14h53.2c13.8,0,25.1,11.3,25.1,25.1  V256.9z M474.1,176.9l-41.3-23.7l-47.1,82.1c-6.7,12.3-15.6,26.4-22.3,38.8c-0.1,0.1-0.1,0.2-0.2,0.3l-41.4,72.3l41.3,23.7  L474.1,176.9z M76.5,413h53.3c2.3,0,4.1,1.8,4.1,4.1v37.2c0,2.3-1.8,4.1-4.1,4.1H76.5c-2.3,0-4.1-1.8-4.1-4.1v-37.2  C72.4,414.9,74.2,413,76.5,413L76.5,413z M125.6,421.3H80.6v29h45.1V421.3z M76.5,357.8h53.3c2.3,0,4.1,1.8,4.1,4.1v37.2  c0,2.3-1.8,4.1-4.1,4.1H76.5c-2.3,0-4.1-1.8-4.1-4.1v-37.2C72.4,359.7,74.2,357.8,76.5,357.8L76.5,357.8z M125.6,366H80.6v29h45.1  V366z M177.8,41.3h-40.1c-2.1,0-4.1,0.9-5.5,2.3v0c-2.2,2.2-2.3,4.3-2.3,7.1v21.1c0,4.3,3.5,7.8,7.8,7.8h132c4.3,0,7.8-3.5,7.8-7.8  V49.1c0-4.3-3.5-7.8-7.8-7.8h-40.1c-2.8,0-4.8-2.9-3.8-5.6l4.6-12c2-5.1-1.7-10.6-7.3-10.6h-38.7c-5.6,0-9.2,5.4-7.3,10.6  c0.8,2.1,4.9,11.9,4.9,13.5C181.9,39.5,180,41.3,177.8,41.3L177.8,41.3z"/></svg>