<svg xmlns="http://www.w3.org/2000/svg" data-name="Layer 1" viewBox="0 0 100 100" x="0px" y="0px"><title>freelancer</title><path d="M57.08594,94.24463A22.031,22.031,0,0,0,75.622,74.09229h2.25274l1.29816,4.67089L93.083,80.814l-2.94385-8.22167L93.083,64.37061,79.17285,66.4209l-1.29822,4.67139H75.63434A21.88015,21.88015,0,0,0,37.15149,58.36853a48.86555,48.86555,0,0,1,.36224-11.92615h.48236A3.8415,3.8415,0,0,0,39.273,38.97174,11.524,11.524,0,0,0,34.578,23.69916l.465-2.728a6.19331,6.19331,0,1,0-12.21,0l.465,2.72821A11.53279,11.53279,0,0,0,18.61,38.97321a3.84457,3.84457,0,0,0,1.27868,7.46917h.46039a49.47353,49.47353,0,0,1-1.97894,23.146l-.91168,2.71338h-.727a5.07784,5.07784,0,0,0-3.59082,8.67041A5.02327,5.02327,0,0,0,16.292,82.41888V84.582H13.03125a5.36566,5.36566,0,0,0-5.35937,5.35986v4.56006H53.78125A20.86282,20.86282,0,0,0,57.08594,94.24463ZM81.54,76.07959l-.552-1.9873h6.50183l1.08337,3.02441Zm0-6.9751,7.0332-1.03662-1.08337,3.02442H80.988Zm-55.043-51.23437a3.19337,3.19337,0,0,1,5.58887,2.59668l-.35742,2.0957c-.0788-.01953-.161-.02606-.2403-.04388-.24121-.0539-.48413-.09455-.72821-.13294-.18347-.02881-.36469-.06329-.54974-.08325-.33606-.0365-.67365-.053-1.01184-.06024-.189-.00409-.37659-.00171-.56574.00329-.31732.00849-.63422.02277-.95026.057-.1922.02063-.38073.05591-.57141.086-.23681.03747-.47271.07709-.70727.12921-.08472.01886-.17218.026-.25629.04681L25.79,20.4668v-.00049A3.18972,3.18972,0,0,1,26.49707,17.87012Zm-.94434,8.04834a8.573,8.573,0,0,1,11.958,7.876,8.55769,8.55769,0,0,1-1.05469,4.11817l-.0241.05621-.01886-.00738-.06824.21038-.004.00934q-.08789.27832-.17187.55713H21.708q-.0879-.293-.17871-.583l-.11133-.3374-.09668-.103a8.57793,8.57793,0,0,1,4.23144-11.79638ZM19.88867,43.44238a.848.848,0,0,1-.60937-.26269.83047.83047,0,0,1-.24317-.58936.85357.85357,0,0,1,.85254-.852H37.99609a.84564.84564,0,0,1,.6084.26318.82934.82934,0,0,1,.24317.58887.85272.85272,0,0,1-.85157.852ZM21.21387,70.543A52.49416,52.49416,0,0,0,23.3797,46.44238H34.4776a51.83944,51.83944,0,0,0,.11725,15.6142,21.74344,21.74344,0,0,0-2.7132,10.24518H20.623ZM35.461,84.582H19.292V82.46191H34.24762A20.79388,20.79388,0,0,0,35.461,84.582ZM15.2627,78.85156a2.07782,2.07782,0,0,1,1.46875-3.5498H32.03906c.011.0907.03437.17871.04657.26922.0542.40271.13037.79975.20722,1.19715.05359.27716.0993.55572.16394.83014.10058.42773.22723.84747.35418,1.26757.05976.19758.101.40015.16657.59607H16.73145A2.06428,2.06428,0,0,1,15.2627,78.85156ZM10.67188,91.50195V89.94189A2.36239,2.36239,0,0,1,13.03125,87.582h24.7959c.04535.0484.095.09174.14075.13971q.42105.44111.86322.85675c.0509.04767.09924.09839.15057.14557.34351.316.69806.61725,1.05939.90936.10766.087.21783.17011.327.255q.41125.31978.83588.619c.11645.082.23212.16467.35.24432.38263.25836.77033.5083,1.16761.74145l.01385.00879Zm28.9414-6.416a18.90352,18.90352,0,0,1-4.70453-11.39185l-.00091-.01721c-.02668-.35846-.03577-.71747-.03577-1.08508a18.75766,18.75766,0,0,1,2.57422-9.50293,18.88986,18.88986,0,0,1,35.16913,8.00342H70.77557A17.06577,17.06577,0,0,0,36.71191,72.5918c0,.44873.02051.88574.05372,1.32422a16.91243,16.91243,0,0,0,1.998,6.7915A17.07093,17.07093,0,0,0,70.7851,74.09229h1.83679A19.02063,19.02063,0,0,1,56.626,91.28027a17.9934,17.9934,0,0,1-2.84473.22168,18.854,18.854,0,0,1-14.168-6.416ZM57.908,74.09229a4.40718,4.40718,0,1,1,.00006-3H53.78125v3Zm-4.12677-8.90723a7.407,7.407,0,1,0,7.25409,8.90723h1.85309a9.23988,9.23988,0,1,1,.00012-3H61.0354A7.41988,7.41988,0,0,0,53.78125,65.18506Zm0-4.833A12.24,12.24,0,1,0,65.9198,74.09229h1.84228a14.11039,14.11039,0,0,1-9.99255,11.99139q-.59033.17413-1.20312.29767l-.002.00049a14.07676,14.07676,0,0,1-15.16308-7.10352,13.90442,13.90442,0,0,1-1.64356-5.58984c-.02734-.36231-.0459-.7251-.0459-1.09668a14.06864,14.06864,0,0,1,28.05726-1.49951H65.91992A12.25155,12.25155,0,0,0,53.78125,60.35205Z"/><polygon points="47.615 18.193 51.128 14.68 54.642 18.193 56.763 16.072 53.25 12.559 56.763 9.046 54.642 6.925 51.128 10.438 47.615 6.925 45.494 9.046 49.007 12.559 45.494 16.072 47.615 18.193"/><path d="M51.12793,48.47363a7.0647,7.0647,0,1,0-7.06445-7.06494A7.0735,7.0735,0,0,0,51.12793,48.47363Zm0-11.12939a4.0647,4.0647,0,1,1-4.06445,4.06445A4.06981,4.06981,0,0,1,51.12793,37.34424Z"/><path d="M51.12793,33.55322a7.0647,7.0647,0,1,0-7.06445-7.06445A7.07308,7.07308,0,0,0,51.12793,33.55322Zm0-11.12939a4.0647,4.0647,0,1,1-4.06445,4.06494A4.07023,4.07023,0,0,1,51.12793,22.42383Z"/><polygon points="71.709 35.774 68.196 39.288 64.683 35.774 62.562 37.896 66.075 41.409 62.562 44.922 64.683 47.043 68.196 43.53 71.709 47.043 73.83 44.922 70.317 41.409 73.83 37.896 71.709 35.774"/><polygon points="71.709 21.35 68.196 24.863 64.683 21.35 62.562 23.471 66.075 26.984 62.562 30.497 64.683 32.618 68.196 29.105 71.709 32.618 73.83 30.497 70.317 26.984 73.83 23.471 71.709 21.35"/><path d="M68.19629,19.62744A7.0647,7.0647,0,1,0,61.13184,12.563,7.07225,7.07225,0,0,0,68.19629,19.62744Zm0-11.12939A4.0647,4.0647,0,1,1,64.13184,12.563,4.06939,4.06939,0,0,1,68.19629,8.498Z"/><polygon points="81.751 18.193 85.264 14.68 88.777 18.193 90.898 16.072 87.385 12.559 90.898 9.046 88.777 6.925 85.264 10.438 81.751 6.925 79.63 9.046 83.143 12.559 79.63 16.072 81.751 18.193"/><polygon points="88.777 35.853 85.264 39.366 81.751 35.853 79.63 37.974 83.143 41.487 79.63 45 81.751 47.122 85.264 43.608 88.777 47.122 90.898 45 87.385 41.487 90.898 37.974 88.777 35.853"/><path d="M85.26367,34.04883a7.0647,7.0647,0,1,0-7.06445-7.06494A7.07268,7.07268,0,0,0,85.26367,34.04883Zm0-11.1294a4.0647,4.0647,0,1,1-4.06445,4.06446A4.069,4.069,0,0,1,85.26367,22.91943Z"/></svg>