<svg xmlns:dc="http://purl.org/dc/elements/1.1/" xmlns:cc="http://creativecommons.org/ns#" xmlns:rdf="http://www.w3.org/1999/02/22-rdf-syntax-ns#" xmlns:svg="http://www.w3.org/2000/svg" xmlns="http://www.w3.org/2000/svg" xmlns:sodipodi="http://sodipodi.sourceforge.net/DTD/sodipodi-0.dtd" xmlns:inkscape="http://www.inkscape.org/namespaces/inkscape" viewBox="0 0 17 17" version="1.1" x="0px" y="0px"><g transform="translate(81.64286,-139.45952)"><path style="color:#000000;font-style:normal;font-variant:normal;font-weight:normal;font-stretch:normal;font-size:medium;line-height:normal;font-family:sans-serif;font-variant-ligatures:normal;font-variant-position:normal;font-variant-caps:normal;font-variant-numeric:normal;font-variant-alternates:normal;font-feature-settings:normal;text-indent:0;text-align:start;text-decoration:none;text-decoration-line:none;text-decoration-style:solid;text-decoration-color:#000000;letter-spacing:normal;word-spacing:normal;text-transform:none;writing-mode:lr-tb;direction:ltr;text-orientation:mixed;dominant-baseline:auto;baseline-shift:baseline;text-anchor:start;white-space:normal;shape-padding:0;clip-rule:nonzero;display:inline;overflow:visible;visibility:visible;opacity:1;isolation:auto;mix-blend-mode:normal;color-interpolation:sRGB;color-interpolation-filters:linearRGB;solid-color:#000000;solid-opacity:1;vector-effect:none;fill:#000000;fill-opacity:1;fill-rule:nonzero;stroke:none;stroke-width:0.52916664;stroke-linecap:round;stroke-linejoin:round;stroke-miterlimit:4;stroke-dasharray:none;stroke-dashoffset:0;stroke-opacity:1;paint-order:normal;color-rendering:auto;image-rendering:auto;shape-rendering:auto;text-rendering:auto;enable-background:accumulate" d="m -80.073606,140.51786 c -0.27863,0 -0.51092,0.2323 -0.51092,0.51092 v 1.02234 3.32097 c 0,0.27863 0.23229,0.51093 0.51092,0.51093 h 1.022324 c 0.27863,0 0.508927,-0.23229 0.508927,-0.51093 v -2.81205 h 2.81205 c 0.27863,0 0.51092,-0.2303 0.51092,-0.50892 v -1.02234 c 0,-0.27862 -0.23229,-0.51092 -0.51092,-0.51092 h -3.320977 z m 9.4515,0 c -0.27863,0 -0.51092,0.23228 -0.51092,0.51092 v 1.02234 c 0,0.27864 0.23229,0.50892 0.51092,0.50892 h 2.810056 v 2.81205 c 0,0.27863 0.23229,0.51093 0.51092,0.51093 h 1.022349 c 0.278605,0 0.51092,-0.2323 0.51092,-0.51093 v -3.32097 -1.02234 c 0,-0.27862 -0.232315,-0.51092 -0.51092,-0.51092 h -1.022349 z m -9.4515,0.51092 h 1.022324 3.320977 v 1.02234 h -3.066514 a 0.25548529,0.25548529 0 0 0 -0.254463,0.25446 v 3.06651 h -1.022324 v -3.32097 z m 9.4515,0 h 3.320976 1.022349 v 1.02234 3.32097 h -1.022349 v -3.06651 a 0.25548529,0.25548529 0 0 0 -0.254464,-0.25446 h -3.066512 z m -1.932912,2.44982 c -0.637448,0 -1.159557,0.52075 -1.159557,1.15805 0,0.6373 0.522109,1.15955 1.159557,1.15955 0.637475,0 1.160043,-0.52225 1.160043,-1.15955 0,-0.6373 -0.522568,-1.15805 -1.160043,-1.15805 z m 0,0.50892 c 0.361528,0 0.649124,0.28815 0.649124,0.64913 0,0.36098 -0.287596,0.64862 -0.649124,0.64862 -0.361526,0 -0.648637,-0.28764 -0.648637,-0.64862 0,-0.36098 0.287111,-0.64913 0.648637,-0.64913 z m -1.92494,1.52378 a 0.25548529,0.25548529 0 0 0 -0.177621,0.0753 l -3.390333,3.38883 a 0.25548529,0.25548529 0 1 0 0.360249,0.36025 l 3.211205,-3.20772 3.662246,3.66025 a 0.256141,0.256141 0 0 0 0.362241,-0.36223 l -1.571179,-1.56968 1.50333,-1.50182 1.853565,1.85158 a 0.25548529,0.25548529 0 1 0 0.362241,-0.36023 l -2.035197,-2.03471 a 0.25548529,0.25548529 0 0 0 -0.184595,-0.0734 0.25548529,0.25548529 0 0 0 -0.177136,0.0734 l -1.683939,1.68394 -1.910456,-1.90846 a 0.25548529,0.25548529 0 0 0 -0.184621,-0.0753 z m -0.652597,4.10531 c -0.927268,0.014 -1.709332,0.10597 -2.170412,0.49446 a 0.25557901,0.25557901 0 0 0 0.329799,0.39018 c 0.240668,-0.20278 0.963797,-0.36183 1.848072,-0.37521 0.884299,-0.0134 1.933626,0.0832 2.888892,0.23351 0.955292,0.15037 1.821735,0.35704 2.323586,0.54684 0.05659,0.0214 0.04388,0.0229 0.09033,0.0454 -0.399029,0.0662 -0.869356,0.0488 -1.421993,-0.0603 -0.651625,-0.12862 -1.3382,-0.29255 -1.972328,-0.18261 -0.100575,0.0175 -0.184978,0.0382 -0.263966,0.0773 -0.07896,0.0391 -0.164951,0.10504 -0.205542,0.21306 -0.04067,0.10802 -0.01609,0.22116 0.01839,0.29237 0.03449,0.0713 0.07663,0.12139 0.120755,0.16766 0.141729,0.1486 0.291072,0.25738 0.392157,0.34676 -0.02935,0.01 0,9.7e-4 -0.04889,0.01 -0.351283,0.0579 -1.13414,0.0686 -2.543613,-0.023 a 0.25627081,0.25627081 0 1 0 -0.03393,0.51141 c 1.423345,0.0925 2.209854,0.0894 2.660869,0.015 0.225494,-0.0372 0.391492,-0.0707 0.512911,-0.24498 0.06072,-0.0872 0.07689,-0.21336 0.05439,-0.30187 -0.02248,-0.0885 -0.06486,-0.14943 -0.107267,-0.20207 -0.128139,-0.15913 -0.271963,-0.25503 -0.390675,-0.35076 0.471681,-0.0614 1.077862,0.049 1.708872,0.17363 0.660288,0.13033 1.337536,0.26192 1.940396,0.0529 0.12234,-0.0424 0.230323,-0.0866 0.314855,-0.20756 0.04228,-0.0604 0.07005,-0.14877 0.06387,-0.23001 -0.0059,-0.0812 -0.03913,-0.14607 -0.07536,-0.19609 -0.144845,-0.20007 -0.350261,-0.27552 -0.633642,-0.38269 -0.566763,-0.21435 -1.446311,-0.41926 -2.424875,-0.57329 -0.978564,-0.15403 -2.048455,-0.25352 -2.975697,-0.23949 z m -4.941051,0.35276 c -0.278631,0 -0.51092,0.2323 -0.51092,0.51092 v 3.32098 1.02234 c 0,0.27863 0.23229,0.51091 0.51092,0.51091 h 1.022324 3.320977 c 0.27863,0 0.510919,-0.23228 0.510919,-0.51091 v -1.02234 c 0,-0.27863 -0.23229,-0.51092 -0.510919,-0.51092 h -2.81205 v -2.81006 c 0,-0.27863 -0.230297,-0.51092 -0.508927,-0.51092 z m 12.772476,0 c -0.278631,0 -0.51092,0.2323 -0.51092,0.51092 v 2.81006 h -2.810056 c -0.278631,0 -0.51092,0.23228 -0.51092,0.51092 v 1.02234 c 0,0.27864 0.23229,0.51091 0.51092,0.51091 h 3.320976 1.022349 c 0.278605,0 0.51092,-0.23228 0.51092,-0.51091 v -1.02234 -3.32098 c 0,-0.27862 -0.232315,-0.51092 -0.51092,-0.51092 z m -12.772476,0.51092 h 1.022324 v 3.06652 a 0.25548529,0.25548529 0 0 0 0.254463,0.25446 h 3.066514 v 1.02234 h -3.320977 -1.022324 v -1.02234 z m 12.772476,0 h 1.022349 v 3.32098 1.02234 h -1.022349 -3.320976 v -1.02234 h 3.066512 a 0.25548529,0.25548529 0 0 0 0.254464,-0.25446 z"/></g></svg>