<svg xmlns="http://www.w3.org/2000/svg" viewBox="0 0 48 48" x="0px" y="0px"><g><path d="M43.957,33.431a.471.471,0,0,0-.012-.054L39.4,23.094a2.818,2.818,0,0,0-.27-.612,3.242,3.242,0,0,0-2.871-1.7,3.3,3.3,0,0,0-2.145.8.5.5,0,0,0-.151.532l1.363,4.248h-4.98V10.708a.5.5,0,0,0-.385-.487L22.051,8.355a.5.5,0,0,0-.614.487v7.366H18.153a.5.5,0,0,0-.5.5v9.65H12.675l1.361-4.248a.5.5,0,0,0-.151-.532,3.3,3.3,0,0,0-2.145-.8,3.234,3.234,0,0,0-2.861,1.686c-.009.016-.012.033-.021.049l0,0-.154.348c-.033.08-.08.155-.1.237l0,.008L4.055,33.377a.471.471,0,0,0-.012.054A4.163,4.163,0,0,0,3.5,35.458a4.21,4.21,0,0,0,4.21,4.2H40.29a4.21,4.21,0,0,0,4.21-4.2A4.163,4.163,0,0,0,43.957,33.431ZM38.243,22.95,42.1,31.672a4.159,4.159,0,0,0-1.808-.424,4.211,4.211,0,0,0-2.154.594l-3.112-9.7A2.319,2.319,0,0,1,38.243,22.95ZM22.437,9.474l6.91,1.63v21.1h-6.91Zm-3.784,7.734h2.784v15H18.653Zm-5.677,4.936L11.515,26.7h0l-1.65,5.137a4.211,4.211,0,0,0-2.154-.594,4.159,4.159,0,0,0-1.808.424l3.86-8.734A2.323,2.323,0,0,1,12.976,22.144ZM40.29,38.658H7.71A3.205,3.205,0,1,1,9.8,33.027a.5.5,0,0,0,.461.1.5.5,0,0,0,.341-.328l1.749-5.443h5.3v4.85H15.592a.5.5,0,1,0,0,1H32.408a.5.5,0,0,0,0-1H30.347v-4.85h5.3L37.394,32.8a.5.5,0,0,0,.8.226,3.206,3.206,0,1,1,2.094,5.631ZM19.325,18.708a.5.5,0,0,1,.5-.5h.65a.5.5,0,0,1,0,1h-.65A.5.5,0,0,1,19.325,18.708Zm0,2a.5.5,0,0,1,.5-.5h.65a.5.5,0,0,1,0,1h-.65A.5.5,0,0,1,19.325,20.708Zm0,2a.5.5,0,0,1,.5-.5h.65a.5.5,0,0,1,0,1h-.65A.5.5,0,0,1,19.325,22.708Zm0,2a.5.5,0,0,1,.5-.5h.65a.5.5,0,0,1,0,1h-.65A.5.5,0,0,1,19.325,24.708Zm0,2a.5.5,0,0,1,.5-.5h.65a.5.5,0,0,1,0,1h-.65A.5.5,0,0,1,19.325,26.708Zm0,2a.5.5,0,0,1,.5-.5h.65a.5.5,0,0,1,0,1h-.65A.5.5,0,0,1,19.325,28.708Zm0,2a.5.5,0,0,1,.5-.5h.65a.5.5,0,0,1,0,1h-.65A.5.5,0,0,1,19.325,30.708Zm4.175-18a.5.5,0,0,1,.5-.5h3.783a.5.5,0,0,1,0,1H24A.5.5,0,0,1,23.5,12.708Zm0,2a.5.5,0,0,1,.5-.5h3.783a.5.5,0,0,1,0,1H24A.5.5,0,0,1,23.5,14.708Zm0,2a.5.5,0,0,1,.5-.5h3.783a.5.5,0,0,1,0,1H24A.5.5,0,0,1,23.5,16.708Zm0,2a.5.5,0,0,1,.5-.5h3.783a.5.5,0,0,1,0,1H24A.5.5,0,0,1,23.5,18.708Zm0,2a.5.5,0,0,1,.5-.5h3.783a.5.5,0,0,1,0,1H24A.5.5,0,0,1,23.5,20.708Zm0,2a.5.5,0,0,1,.5-.5h3.783a.5.5,0,0,1,0,1H24A.5.5,0,0,1,23.5,22.708Zm0,2a.5.5,0,0,1,.5-.5h3.783a.5.5,0,0,1,0,1H24A.5.5,0,0,1,23.5,24.708Zm0,2a.5.5,0,0,1,.5-.5h3.783a.5.5,0,0,1,0,1H24A.5.5,0,0,1,23.5,26.708Zm0,2a.5.5,0,0,1,.5-.5h3.783a.5.5,0,0,1,0,1H24A.5.5,0,0,1,23.5,28.708Zm0,2a.5.5,0,0,1,.5-.5h3.783a.5.5,0,0,1,0,1H24A.5.5,0,0,1,23.5,30.708Zm11.414,4.5a.5.5,0,0,1-.5.5h-9.4a.5.5,0,0,1,0-1h9.4A.5.5,0,0,1,34.914,35.205Zm-11.312,0a.5.5,0,0,1-.5.5H21.937a.5.5,0,1,1,0-1H23.1A.5.5,0,0,1,23.6,35.205ZM10.45,15.793a2.372,2.372,0,0,1-.727-1.72,2.423,2.423,0,0,1,2.8-2.354,2.825,2.825,0,1,1,5.219,2.163H19.92a.5.5,0,0,1,0,1H16.811a.5.5,0,0,1-.356-.851,1.827,1.827,0,1,0-3.091-1.606.5.5,0,0,1-.686.375,1.412,1.412,0,0,0-1.955,1.273,1.378,1.378,0,0,0,.423,1,.5.5,0,0,1,.011.707.5.5,0,0,1-.707.012ZM31.7,16.928a2.719,2.719,0,0,1,5.242-1.016,2.121,2.121,0,0,1,.658-.1A2.193,2.193,0,0,1,39.79,18a2.145,2.145,0,0,1-.033.376h1.6a.5.5,0,0,1,0,1H39.044a.5.5,0,0,1-.426-.761,1.185,1.185,0,0,0-1.707-1.578.5.5,0,0,1-.786-.339,1.72,1.72,0,1,0-2.43,1.783.5.5,0,1,1-.422.906A2.724,2.724,0,0,1,31.7,16.928Zm8.513,3.28h2.895a.5.5,0,0,1,0,1H40.213a.5.5,0,0,1,0-1Z"/></g></svg>