<svg xmlns="http://www.w3.org/2000/svg" xmlns:xlink="http://www.w3.org/1999/xlink" version="1.1" x="0px" y="0px" viewBox="0 0 100 100" enable-background="new 0 0 100 100" xml:space="preserve"><path d="M62.3,47c0.5,0.5,0.7,1.1,0.7,1.8c0,0.7-0.3,1.3-0.7,1.8c-0.5,0.5-1.1,0.7-1.8,0.7s-1.3-0.3-1.8-0.7  c-0.5-0.5-0.7-1.1-0.7-1.8c0-0.7,0.3-1.3,0.7-1.8C59.7,46.1,61.4,46.1,62.3,47z M62.3,21.8c-2.4-0.5-4.9,0.1-6.8,1.6  c-1.9,1.6-3,3.8-3,6.3c0,1.4,1.1,2.5,2.5,2.5s2.5-1.1,2.5-2.5c0-0.9,0.4-1.8,1.2-2.4c0.7-0.6,1.7-0.8,2.7-0.6  c1.1,0.2,2.1,1.2,2.3,2.3c0.3,1.2-0.2,2.4-1.1,3.2c-2.8,2.2-4.4,5.4-4.4,8.7c0,1.4,1.1,2.5,2.5,2.5s2.5-1.1,2.5-2.5  c0-1.8,0.9-3.5,2.5-4.7c2.5-1.9,3.6-5,2.9-8.1C67.9,24.9,65.4,22.4,62.3,21.8z M98.2,36.4c0,7.1-2.6,14.1-7.4,19.8  c1,1.9,2.3,3.5,4,4.6c1.2,0.8,1.8,2.2,1.5,3.7C96,66,94.9,67,93.4,67.2c-1.2,0.2-2.4,0.3-3.6,0.3c-3.7,0-7.1-0.8-10.2-2.3  c-5.8,3-12.3,4.6-19.1,4.6c-20.8,0-37.6-14.9-37.6-33.3c0-18.4,16.9-33.3,37.6-33.3C81.3,3.1,98.2,18.1,98.2,36.4z M93.2,36.4  c0-15.6-14.6-28.3-32.6-28.3c-18,0-32.6,12.7-32.6,28.3c0,15.6,14.6,28.3,32.6,28.3c6.4,0,12.5-1.6,17.9-4.6c0.8-0.4,1.7-0.4,2.5,0  c2.3,1.4,5,2.2,8.1,2.3c-1.5-1.6-2.6-3.5-3.5-5.8c-0.3-0.9-0.1-1.9,0.5-2.6C90.7,49,93.2,42.9,93.2,36.4z M4.8,88.7  c-1.2,0.8-1.7,2.1-1.4,3.5c0.3,1.3,1.4,2.3,2.8,2.5c2.5,0.3,7,0.5,11.5-1.7c4.8,2.5,10.3,3.8,15.9,3.8c14,0,26.1-7.9,30.3-19.7  c0.5-1.3-0.2-2.7-1.5-3.2c-1.3-0.5-2.7,0.2-3.2,1.5c-3.4,9.7-13.9,16.4-25.6,16.4c-5.2,0-10.3-1.3-14.7-3.8c-0.8-0.4-1.7-0.4-2.5,0  c-1.8,1.1-3.8,1.6-5.5,1.8c1-1.2,1.7-2.6,2.3-4.2c0.3-0.9,0.1-1.9-0.5-2.6C8.8,79,6.8,74,6.8,68.7c0-7.6,4.3-14.7,11.6-19.1  c1.2-0.7,1.6-2.2,0.9-3.4c-0.7-1.2-2.2-1.6-3.4-0.9c-8.8,5.2-14,14-14,23.4c0,5.9,2.1,11.8,6.1,16.6C7.1,86.7,6.1,87.9,4.8,88.7z"/></svg>