<svg xmlns="http://www.w3.org/2000/svg" data-name="Layer 1" viewBox="0 0 128 128" x="0px" y="0px"><title>various people avatars final</title><path d="M64,74.99933A32.04109,32.04109,0,0,0,95.77026,46.77051c.96265-3.28693,6.53656-24.61176-7.50079-34.79706A27.66887,27.66887,0,0,0,73.14789,6.253,4.00016,4.00016,0,0,0,70.21332.519,38.72586,38.72586,0,0,0,64.03461,0C50.4682,0,44.07068,7.8902,41.82532,11.56952c-9.976,3.44128-13.49622,15.90759-9.66425,34.63873A32.04437,32.04437,0,0,0,64,74.99933Zm0-4a27.999,27.999,0,0,1-27.1192-21.066,3.98694,3.98694,0,0,0,1.46875-.56445c5.43756-3.48083,7.47473-9.92126,8.21655-14.88794a20.98592,20.98592,0,0,0,7.275,1.3493,19.57313,19.57313,0,0,0,10.30762-2.95557,18.848,18.848,0,0,0,9.93683,2.89215A19.24309,19.24309,0,0,0,81.098,34.42548c.93524,4.95819,3.18152,11.49231,8.56982,14.943a3.98628,3.98628,0,0,0,1.45215.56116A27.99868,27.99868,0,0,1,64,70.99933ZM44.53546,14.95795S49.17151,4,64.03467,4a34.52837,34.52837,0,0,1,5.53748.46729s-9.09839,3.11017-8.68353,7.29047a30.40665,30.40665,0,0,1,9.81409-1.59717A24.04275,24.04275,0,0,1,85.86078,15.168c12.52759,9.01062,6.25916,29.902,5.97339,30.802,0,.01,0,.01-.00922.02V46c-6.8399-4.38031-7.43909-16.22107-7.393-18.00116a17.73357,17.73357,0,0,1-10.34644,3.76794,15.69873,15.69873,0,0,1-9.93365-3.76794A16.27123,16.27123,0,0,1,53.84106,31.8302,18.67708,18.67708,0,0,1,42.95,27.99884S43.61365,41.24969,36.193,46C36.193,45.52,29.34381,18.28821,44.53546,14.95795Z"/><path d="M10,127.99951a2.0001,2.0001,0,0,0,2-2v-30A23.02367,23.02367,0,0,1,34.166,73.02069c.99744,4.777,7.70038,33.49,28.41315,54.387a2.0011,2.0011,0,0,0,2.8418-.00049c20.49872-20.68085,27.38843-49.62128,28.41-54.38666A23.02356,23.02356,0,0,1,116,95.99951v30a2,2,0,0,0,4,0v-30a27.03078,27.03078,0,0,0-27-27H88.86072q-.57449.5495-1.17224,1.07385l-.01965.01709q-.58548.51205-1.19183.99988c-.02563.02057-.05188.04047-.07758.061q-.58612.46729-1.19.912c-.03967.02911-.08044.05664-.12024.08551-.401.29089-.80609.576-1.2193.85065h5.86029c-1.21649,5.18439-6.2428,24.06525-18.30634,41.02167L69.45776,97.44354l1.90472-1.73163.7713,2.00537a1.99955,1.99955,0,0,0,3.30273.67383c4.80524-4.9599,11.301-15.46844,7.73334-24.94238a35.9532,35.9532,0,0,1-3.54419,1.97894c2.22107,6.81421-2.15173,14.01416-4.97137,17.70172l-3.41577-8.87976a16.06925,16.06925,0,0,0,7.6651-8.4931,35.69436,35.69436,0,0,1-5.84247,2.08636,11.96639,11.96639,0,0,1-9.05756,4.15643h-.0072a11.94587,11.94587,0,0,1-9.05219-4.15491,35.78258,35.78258,0,0,1-9.29614-3.89075c-3.15521,9.34,3.1955,19.56561,7.91541,24.43744a1.99976,1.99976,0,0,0,3.30273-.67383l.51221-1.33179,1.16382,1.058-1.96875,16.6004C44.3894,96.99255,39.44885,78.157,38.26263,72.99951h5.86749c-.41321-.2746-.8183-.55975-1.2193-.85065-.03979-.02887-.08057-.0564-.12024-.08551q-.60553-.443-1.19-.912c-.0257-.02051-.05194-.04041-.07758-.061q-.60727-.48688-1.19183-.99988l-.01965-.01709q-.59821-.524-1.17224-1.07385H35a27.03078,27.03078,0,0,0-27,27v30A2.0001,2.0001,0,0,0,10,127.99951ZM54.35645,93.10205C51.66,89.51788,47.49994,82.63464,49.19971,76.05853a16.08341,16.08341,0,0,0,8.40527,8.598ZM64,123.12061c-1.38208-1.46838-2.68909-2.97943-3.93915-4.5144L62.20142,100.554a3.85483,3.85483,0,0,0,3.59717,0L67.938,118.59723C66.68781,120.13739,65.381,121.65173,64,123.12061ZM61.37311,85.99933H63.9964L64,85.99951l.0036-.00018H67.5l2,6-5.5,5-5.08105-4.61914Z"/></svg>