<svg xmlns="http://www.w3.org/2000/svg" data-name="Layer 1" viewBox="0 0 128 128" x="0px" y="0px"><title>miscellaneous 106 final</title><path d="M35.12146,100.19073,33.6557,98.725l-4.72485,4.82874a2.00154,2.00154,0,0,0-.48535,1.97656l2.59766,8.60352-9.4834,9.69141-4.00092-.80664,7.60541-7.77246a1.999,1.999,0,0,0-.06055-2.85645l-9.3847-8.80957a1.99919,1.99919,0,0,0-2.79883.05957l-7.69427,7.86328-.99219-3.88184L13.718,97.92676l8.94818,2.19141a1.99325,1.99325,0,0,0,1.90527-.54395l4.91272-5.02081L27.79382,92.863a7.83641,7.83641,0,0,1-1.00836-1.27069l-4.27551,4.36957-8.94818-2.19141a1.99556,1.99556,0,0,0-1.90527.54395L.58722,105.62793a1.99972,1.99972,0,0,0-.50781,1.89355l2.15234,8.416a1.99964,1.99964,0,0,0,3.36719.90332l8.81049-9.00391,6.46777,6.07129-8.75293,8.94434a2.0005,2.0005,0,0,0,1.03418,3.35938l8.67572,1.749a2.0039,2.0039,0,0,0,1.8252-.5625l11.07025-11.3125a2.00154,2.00154,0,0,0,.48535-1.97656l-2.5976-8.60352,4.036-4.12482A8.03756,8.03756,0,0,1,35.12146,100.19073Z"/><path d="M5.14777,12.124A2.0005,2.0005,0,0,0,1.78839,13.1582L.03937,21.834a2.00108,2.00108,0,0,0,.5625,1.8252L11.91528,34.72949a2.00764,2.00764,0,0,0,1.97656.48535l8.60345-2.59766,4.12933,4.04047a7.8489,7.8489,0,0,1,1.1687-1.52026l1.4823-1.4823-4.82819-4.72443a1.99763,1.99763,0,0,0-1.39844-.57031,2.02619,2.02619,0,0,0-.57812.085L13.86743,31.043l-9.69232-9.4834.80762-4.001,7.7724,7.60547a2.03653,2.03653,0,0,0,1.44043.57031,2.00286,2.00286,0,0,0,1.416-.63086l8.80951-9.38477a2.00008,2.00008,0,0,0-.05957-2.79883L16.49829,5.22559l3.88184-.99316,9.6933,9.48535L27.883,22.666a1.99888,1.99888,0,0,0,.54395,1.90527L33.447,29.48364l1.67438-1.67438a8.07056,8.07056,0,0,1,1.27484-1.03607l-4.357-4.26343,2.19037-8.94824a1.99888,1.99888,0,0,0-.54395-1.90527L22.37323.58594A1.9984,1.9984,0,0,0,20.47876.07813l-8.416,2.15332a1.99988,1.99988,0,0,0-.90234,3.36719l9.00391,8.81055L14.093,20.877Z"/><path d="M116.08569,93.27148a2.00538,2.00538,0,0,0-1.97656-.48535l-8.60345,2.59766-4.14948-4.06036a7.85223,7.85223,0,0,1-1.18127,1.53918L98.7088,94.32874l4.84473,4.7406a2.01041,2.01041,0,0,0,1.97656.48535l8.60345-2.59766,9.69135,9.4834-.80762,4.001-7.77142-7.60449a2.06953,2.06953,0,0,0-1.44043-.57031,2.00286,2.00286,0,0,0-1.416.63086l-8.80951,9.38477a2.00008,2.00008,0,0,0,.05957,2.79883l7.86322,7.69434-3.88184.99219-9.69427-9.48535L100.118,105.334a1.99888,1.99888,0,0,0-.54395-1.90527l-5.03674-4.92841L92.84863,100.189a8.073,8.073,0,0,1-1.25629,1.02588l4.36938,4.27539-2.19135,8.94824a1.99888,1.99888,0,0,0,.54395,1.90527l11.31342,11.07031a1.99784,1.99784,0,0,0,1.89349.50781l8.416-2.15234a1.99964,1.99964,0,0,0,.90332-3.36719l-9.00391-8.81055L113.908,107.124l8.94427,8.752a2.0005,2.0005,0,0,0,3.35938-1.03418l1.749-8.67578a2.00108,2.00108,0,0,0-.5625-1.8252Z"/><path d="M92.84686,27.80927,94.3291,29.2915l4.74005-4.84424a2.00154,2.00154,0,0,0,.48535-1.97656l-2.59766-8.60352,9.4834-9.69238,4.00189.80762-7.60541,7.77246a1.999,1.999,0,0,0,.06055,2.85645l9.3847,8.80957a2.00008,2.00008,0,0,0,2.79883-.05957l7.69427-7.86328.99219,3.88184L114.282,30.07324l-8.9472-2.19043a1.98963,1.98963,0,0,0-1.90527.54395l-4.92859,5.03662,1.6731,1.6731a7.83967,7.83967,0,0,1,1.02216,1.29156l4.29486-4.389,8.9472,2.19043a1.99622,1.99622,0,0,0,1.90527-.54395L127.41376,22.373a1.99972,1.99972,0,0,0,.50781-1.89355l-2.15234-8.416a1.99964,1.99964,0,0,0-3.36719-.90332l-8.81049,9.00391-6.46777-6.07129,8.75293-8.94531a2.0005,2.0005,0,0,0-1.03418-3.35937l-8.6767-1.749a2.0003,2.0003,0,0,0-1.8252.5625L93.27136,11.915A2.00154,2.00154,0,0,0,92.786,13.8916l2.5976,8.60352-4.04724,4.13611A8.02189,8.02189,0,0,1,92.84686,27.80927Z"/><path d="M97.5697,84.61926a39.47133,39.47133,0,0,0,4.7439-11.45081,4.00017,4.00017,0,0,0,3.67059-3.98663V58.81818a4.00017,4.00017,0,0,0-3.67059-3.98663,39.47238,39.47238,0,0,0-4.7439-11.45087,4.00012,4.00012,0,0,0-.223-5.4151l-7.32806-7.32812a4.0003,4.0003,0,0,0-5.4151-.223,39.47133,39.47133,0,0,0-11.45081-4.7439A4.00016,4.00016,0,0,0,69.1662,22H58.80255A4.0002,4.0002,0,0,0,54.816,25.67059a39.471,39.471,0,0,0-11.45074,4.7439,4.0003,4.0003,0,0,0-5.4151.223L30.622,37.96558a4.00025,4.00025,0,0,0-.223,5.4151,39.47392,39.47392,0,0,0-4.74384,11.45087,4.00018,4.00018,0,0,0-3.67065,3.98663V69.18182a4.00018,4.00018,0,0,0,3.67065,3.98663A39.47286,39.47286,0,0,0,30.399,84.61926a4.00056,4.00056,0,0,0,.223,5.4151l7.32813,7.32825a4.00037,4.00037,0,0,0,5.4151.2229,39.475,39.475,0,0,0,11.45074,4.7439A4.00056,4.00056,0,0,0,58.80255,106H69.1662a4.00051,4.00051,0,0,0,3.98657-3.67059,39.47434,39.47434,0,0,0,11.45074-4.7439,4.00045,4.00045,0,0,0,5.41516-.2229l7.32813-7.32825A4.00056,4.00056,0,0,0,97.5697,84.61926ZM87.19025,94.53418l-2.10168-2.10162A35.2232,35.2232,0,0,1,69.1662,99.02789V102H58.80255V99.02789a35.2232,35.2232,0,0,1-15.92236-6.59534l-2.10162,2.10162-7.32819-7.32825L35.552,85.10431a35.22291,35.22291,0,0,1-6.59528-15.92249H25.98456V58.81818h2.97217A35.22291,35.22291,0,0,1,35.552,42.89569L33.45038,40.794l7.32819-7.32819,2.10162,2.10162a35.22186,35.22186,0,0,1,15.92236-6.59534V26H69.1662v2.97211a35.22186,35.22186,0,0,1,15.92236,6.59534l2.10168-2.10162L94.51843,40.794l-2.10162,2.10168a35.22291,35.22291,0,0,1,6.59528,15.92249h2.97211V69.18182H99.01208a35.22291,35.22291,0,0,1-6.59528,15.92249l2.10162,2.10162Z"/><path d="M63.98438,33A31,31,0,1,0,94.98419,64,31.035,31.035,0,0,0,63.98438,33Zm0,58A27,27,0,1,1,90.98425,64,26.99994,26.99994,0,0,1,63.98438,91Z"/><path d="M79.96887,52.527l-13.99994-8a3.99994,3.99994,0,0,0-3.96912,0l-13.99994,8A4,4,0,0,0,45.98444,56V72a4,4,0,0,0,2.01544,3.473l13.99994,8a3.99994,3.99994,0,0,0,3.96912,0l13.99994-8A3.99989,3.99989,0,0,0,81.98431,72V56A3.99989,3.99989,0,0,0,79.96887,52.527ZM77.98431,72,63.98438,80,49.98444,72V56l13.99994-8,13.99994,8Z"/><path d="M55.98444,64a7.99994,7.99994,0,1,0,7.99994-8A8.009,8.009,0,0,0,55.98444,64Zm11.99994,0a4,4,0,1,1-4-4A4,4,0,0,1,67.98438,64Z"/></svg>